<svg width="184" height="40" viewBox="0 0 184 40" fill="none"
  xmlns="http://www.w3.org/2000/svg">
  <path d="M24.8 28.88C25 28.88 25.15 28.98 25.25 29.18C25.37 29.4 25.43 29.68 25.43 30.02C25.43 30.66 25.26 31.29 24.92 31.91C24.24 33.15 23.34 34.1 22.22 34.76C21.12 35.44 19.99 35.78 18.83 35.78C17.65 35.78 16.66 35.59 15.86 35.21C15.06 34.85 14.38 34.3 13.82 33.56C13.26 32.84 12.72 31.88 12.2 30.68C11.66 29.44 11.21 28.51 10.85 27.89C10.51 27.29 10.15 26.85 9.76998 26.57C9.38998 26.29 8.89998 26.09 8.29998 25.97C6.07998 25.53 4.28998 24.43 2.92998 22.67C1.58998 20.91 0.919983 18.64 0.919983 15.86C0.919983 12.82 1.46998 10.14 2.56998 7.82C3.68998 5.5 5.19998 3.71 7.09998 2.45C9.01998 1.19 11.14 0.559998 13.46 0.559998C15.24 0.559998 16.84 0.959998 18.26 1.76C19.7 2.56 20.84 3.74 21.68 5.3C22.52 6.84 22.94 8.69 22.94 10.85C22.94 13.37 22.56 15.64 21.8 17.66C21.04 19.68 19.99 21.36 18.65 22.7C17.31 24.04 15.77 24.99 14.03 25.55C14.53 25.83 14.96 26.24 15.32 26.78C15.7 27.32 16.1 28.1 16.52 29.12C16.98 30.24 17.47 31.04 17.99 31.52C18.53 32 19.19 32.24 19.97 32.24C20.63 32.24 21.27 32.01 21.89 31.55C22.51 31.11 23.21 30.38 23.99 29.36C24.23 29.04 24.5 28.88 24.8 28.88ZM10.7 22.61C12.26 22.61 13.63 22.13 14.81 21.17C16.01 20.21 16.93 18.88 17.57 17.18C18.21 15.46 18.53 13.52 18.53 11.36C18.53 8.98 18.03 7.18 17.03 5.96C16.03 4.72 14.74 4.1 13.16 4.1C11.64 4.1 10.28 4.59 9.07998 5.57C7.89998 6.53 6.97998 7.86 6.31998 9.56C5.65998 11.26 5.32998 13.19 5.32998 15.35C5.32998 17.73 5.82998 19.54 6.82998 20.78C7.82998 22 9.11998 22.61 10.7 22.61Z" fill="#000000" fill-opacity="0.9"/>
  <path d="M29.1992 26.15C28.2992 26.15 27.5592 25.74 26.9792 24.92C26.4192 24.08 26.1392 23.04 26.1392 21.8C26.1392 20.3 26.2392 18.93 26.4392 17.69C26.6392 16.43 26.9692 15.1 27.4292 13.7C27.6292 13.1 27.9092 12.67 28.2692 12.41C28.6292 12.15 29.1992 12.02 29.9792 12.02C30.4192 12.02 30.7192 12.09 30.8792 12.23C31.0592 12.37 31.1492 12.58 31.1492 12.86C31.1492 13.02 31.0392 13.56 30.8192 14.48C30.6192 15.22 30.4592 15.89 30.3392 16.49C29.9392 18.59 29.7392 19.99 29.7392 20.69C29.7392 21.11 29.7892 21.41 29.8892 21.59C29.9892 21.75 30.1492 21.83 30.3692 21.83C30.6692 21.83 31.0392 21.53 31.4792 20.93C31.9392 20.33 32.4192 19.42 32.9192 18.2C33.4392 16.98 33.9392 15.48 34.4192 13.7C34.5792 13.1 34.8192 12.67 35.1392 12.41C35.4792 12.15 35.9792 12.02 36.6392 12.02C37.0992 12.02 37.4192 12.08 37.5992 12.2C37.7792 12.3 37.8692 12.5 37.8692 12.8C37.8692 13.3 37.6192 14.67 37.1192 16.91C36.5592 19.47 36.2792 21.05 36.2792 21.65C36.2792 22.03 36.3592 22.33 36.5192 22.55C36.6792 22.75 36.8892 22.85 37.1492 22.85C37.5492 22.85 38.0192 22.61 38.5592 22.13C39.1192 21.63 39.8592 20.83 40.7792 19.73C41.0192 19.45 41.2892 19.31 41.5892 19.31C41.8492 19.31 42.0492 19.43 42.1892 19.67C42.3492 19.91 42.4292 20.24 42.4292 20.66C42.4292 21.46 42.2392 22.08 41.8592 22.52C40.9992 23.58 40.0692 24.45 39.0692 25.13C38.0892 25.81 36.9692 26.15 35.7092 26.15C34.7492 26.15 34.0392 25.78 33.5792 25.04C33.1392 24.3 32.9192 23.26 32.9192 21.92C32.5792 23.28 32.0692 24.33 31.3892 25.07C30.7092 25.79 29.9792 26.15 29.1992 26.15Z" fill="#000000" fill-opacity="0.9"/>
  <path d="M54.8766 19.31C55.1366 19.31 55.3366 19.43 55.4766 19.67C55.6366 19.91 55.7166 20.24 55.7166 20.66C55.7166 21.46 55.5266 22.08 55.1466 22.52C54.4066 23.42 53.3566 24.25 51.9966 25.01C50.6566 25.77 49.2166 26.15 47.6766 26.15C45.5766 26.15 43.9466 25.58 42.7866 24.44C41.6266 23.3 41.0466 21.74 41.0466 19.76C41.0466 18.38 41.3366 17.1 41.9166 15.92C42.4966 14.72 43.2966 13.77 44.3166 13.07C45.3566 12.37 46.5266 12.02 47.8266 12.02C48.9866 12.02 49.9166 12.37 50.6166 13.07C51.3166 13.75 51.6666 14.68 51.6666 15.86C51.6666 17.24 51.1666 18.43 50.1666 19.43C49.1866 20.41 47.5166 21.19 45.1566 21.77C45.6566 22.69 46.6066 23.15 48.0066 23.15C48.9066 23.15 49.9266 22.84 51.0666 22.22C52.2266 21.58 53.2266 20.75 54.0666 19.73C54.3066 19.45 54.5766 19.31 54.8766 19.31ZM47.3166 14.96C46.5766 14.96 45.9466 15.39 45.4266 16.25C44.9266 17.11 44.6766 18.15 44.6766 19.37V19.43C45.8566 19.15 46.7866 18.73 47.4666 18.17C48.1466 17.61 48.4866 16.96 48.4866 16.22C48.4866 15.84 48.3766 15.54 48.1566 15.32C47.9566 15.08 47.6766 14.96 47.3166 14.96Z" fill="#000000" fill-opacity="0.9"/>
  <path d="M68.154 19.31C68.414 19.31 68.614 19.43 68.754 19.67C68.914 19.91 68.994 20.24 68.994 20.66C68.994 21.46 68.804 22.08 68.424 22.52C67.684 23.42 66.634 24.25 65.274 25.01C63.934 25.77 62.494 26.15 60.954 26.15C58.854 26.15 57.224 25.58 56.064 24.44C54.904 23.3 54.324 21.74 54.324 19.76C54.324 18.38 54.614 17.1 55.194 15.92C55.774 14.72 56.574 13.77 57.594 13.07C58.634 12.37 59.804 12.02 61.104 12.02C62.264 12.02 63.194 12.37 63.894 13.07C64.594 13.75 64.944 14.68 64.944 15.86C64.944 17.24 64.444 18.43 63.444 19.43C62.464 20.41 60.794 21.19 58.434 21.77C58.934 22.69 59.884 23.15 61.284 23.15C62.184 23.15 63.204 22.84 64.344 22.22C65.504 21.58 66.504 20.75 67.344 19.73C67.584 19.45 67.854 19.31 68.154 19.31ZM60.594 14.96C59.854 14.96 59.224 15.39 58.704 16.25C58.204 17.11 57.954 18.15 57.954 19.37V19.43C59.134 19.15 60.064 18.73 60.744 18.17C61.424 17.61 61.764 16.96 61.764 16.22C61.764 15.84 61.654 15.54 61.434 15.32C61.234 15.08 60.954 14.96 60.594 14.96Z" fill="#000000" fill-opacity="0.9"/>
  <path d="M70.1813 26.15C69.4213 26.15 68.8813 25.75 68.5613 24.95C68.2613 24.15 68.1113 22.87 68.1113 21.11C68.1113 18.51 68.4813 16.04 69.2213 13.7C69.4013 13.12 69.6913 12.7 70.0913 12.44C70.5113 12.16 71.0913 12.02 71.8313 12.02C72.2313 12.02 72.5113 12.07 72.6713 12.17C72.8313 12.27 72.9113 12.46 72.9113 12.74C72.9113 13.06 72.7613 13.78 72.4613 14.9C72.2613 15.7 72.1013 16.4 71.9813 17C71.8613 17.6 71.7613 18.34 71.6813 19.22C72.3413 17.5 73.0813 16.1 73.9013 15.02C74.7213 13.94 75.5213 13.17 76.3013 12.71C77.1013 12.25 77.8313 12.02 78.4913 12.02C79.7913 12.02 80.4413 12.67 80.4413 13.97C80.4413 14.75 80.2213 16.16 79.7813 18.2C79.4013 19.94 79.2113 21.09 79.2113 21.65C79.2113 22.45 79.5013 22.85 80.0813 22.85C80.4813 22.85 80.9513 22.61 81.4913 22.13C82.0513 21.63 82.7913 20.83 83.7113 19.73C83.9513 19.45 84.2213 19.31 84.5213 19.31C84.7813 19.31 84.9813 19.43 85.1213 19.67C85.2813 19.91 85.3613 20.24 85.3613 20.66C85.3613 21.46 85.1713 22.08 84.7913 22.52C83.9313 23.58 83.0013 24.45 82.0013 25.13C81.0213 25.81 79.9013 26.15 78.6413 26.15C77.6213 26.15 76.8513 25.86 76.3313 25.28C75.8113 24.68 75.5513 23.82 75.5513 22.7C75.5513 22.14 75.6913 21.14 75.9713 19.7C76.2313 18.44 76.3613 17.57 76.3613 17.09C76.3613 16.77 76.2513 16.61 76.0313 16.61C75.7713 16.61 75.4013 16.95 74.9213 17.63C74.4613 18.29 73.9813 19.17 73.4813 20.27C73.0013 21.37 72.6113 22.53 72.3113 23.75C72.0913 24.69 71.8313 25.33 71.5313 25.67C71.2513 25.99 70.8013 26.15 70.1813 26.15Z" fill="#000000" fill-opacity="0.9"/>
  <path d="M90.0141 26.81C88.9741 26.81 88.1741 26.57 87.6141 26.09C87.0741 25.61 86.8041 25.07 86.8041 24.47C86.8041 23.95 86.9941 23.5 87.3741 23.12C87.7541 22.74 88.3141 22.55 89.0541 22.55C89.3141 22.55 89.6141 22.58 89.9541 22.64C90.3141 22.68 90.5841 22.71 90.7641 22.73C90.7441 22.21 90.6241 21.72 90.4041 21.26C90.2041 20.8 89.9441 20.36 89.6241 19.94C89.3041 19.5 89.0041 19.12 88.7241 18.8C88.1041 19.98 87.4841 20.96 86.8641 21.74C86.2641 22.52 85.6041 23.26 84.8841 23.96C84.5241 24.32 84.1441 24.5 83.7441 24.5C83.4241 24.5 83.1641 24.39 82.9641 24.17C82.7641 23.93 82.6641 23.64 82.6641 23.3C82.6641 22.9 82.8041 22.53 83.0841 22.19L83.4741 21.71C84.5741 20.35 85.4041 19.23 85.9641 18.35C86.3241 17.77 86.6841 17.08 87.0441 16.28C87.4241 15.48 87.9141 14.39 88.5141 13.01C88.8941 12.13 89.6841 11.69 90.8841 11.69C91.4441 11.69 91.8341 11.74 92.0541 11.84C92.2741 11.94 92.3841 12.1 92.3841 12.32C92.3841 12.44 92.3441 12.63 92.2641 12.89C92.1841 13.15 92.0741 13.41 91.9341 13.67C91.5741 14.39 91.3941 15 91.3941 15.5C91.3941 15.8 91.4941 16.13 91.6941 16.49C91.9141 16.85 92.2441 17.3 92.6841 17.84C93.3241 18.68 93.8041 19.4 94.1241 20C94.4641 20.58 94.6341 21.22 94.6341 21.92C94.6341 22.76 94.4341 23.56 94.0341 24.32C93.6541 25.06 93.1141 25.66 92.4141 26.12C91.7141 26.58 90.9141 26.81 90.0141 26.81Z" fill="#000000" fill-opacity="0.9"/>
  <path d="M132.5 19.37C132.76 19.37 132.96 19.5 133.1 19.76C133.26 20 133.34 20.31 133.34 20.69C133.34 21.15 133.27 21.51 133.13 21.77C132.99 22.03 132.77 22.26 132.47 22.46C131.29 23.24 129.41 24.52 126.83 26.3C126.05 30.44 125.04 33.7 123.8 36.08C122.56 38.46 120.99 39.65 119.09 39.65C118.07 39.65 117.24 39.33 116.6 38.69C115.96 38.07 115.64 37.25 115.64 36.23C115.64 35.29 115.85 34.34 116.27 33.38C116.69 32.42 117.47 31.31 118.61 30.05C119.77 28.79 121.4 27.35 123.5 25.73L123.59 25.16C122.01 25.82 120.46 26.15 118.94 26.15C116.7 26.15 114.73 25.72 113.03 24.86C111.33 23.98 110.01 22.74 109.07 21.14C108.13 19.54 107.66 17.68 107.66 15.56C107.66 12.6 108.22 9.99 109.34 7.73C110.46 5.45 112 3.69 113.96 2.45C115.94 1.19 118.15 0.559998 120.59 0.559998C122.93 0.559998 124.68 1.11 125.84 2.21C127.02 3.29 127.61 4.73 127.61 6.53C127.61 7.71 127.39 8.66 126.95 9.38C126.53 10.08 125.92 10.43 125.12 10.43C124.58 10.43 124.14 10.3 123.8 10.04C123.48 9.78 123.32 9.42 123.32 8.96C123.32 8.76 123.36 8.42 123.44 7.94C123.56 7.38 123.62 6.94 123.62 6.62C123.62 5.78 123.36 5.13 122.84 4.67C122.34 4.21 121.49 3.98 120.29 3.98C118.83 3.98 117.47 4.4 116.21 5.24C114.97 6.08 113.97 7.34 113.21 9.02C112.45 10.68 112.07 12.68 112.07 15.02C112.07 17.42 112.72 19.28 114.02 20.6C115.34 21.9 117.24 22.55 119.72 22.55C121.1 22.55 122.54 22.24 124.04 21.62L124.46 17.96H121.4C120.84 17.96 120.41 17.83 120.11 17.57C119.81 17.29 119.66 16.84 119.66 16.22C119.66 15.66 119.81 15.22 120.11 14.9C120.41 14.58 120.81 14.42 121.31 14.42H126.92C127.36 14.42 127.72 14.57 128 14.87C128.3 15.15 128.42 15.56 128.36 16.1C128.3 16.74 128.1 18.19 127.76 20.45L127.43 22.73C129.03 21.53 130.49 20.49 131.81 19.61C132.07 19.45 132.3 19.37 132.5 19.37ZM119.42 36.74C119.94 36.74 120.51 36.15 121.13 34.97C121.75 33.79 122.33 31.89 122.87 29.27C121.35 30.57 120.25 31.74 119.57 32.78C118.91 33.84 118.58 34.77 118.58 35.57C118.58 36.35 118.86 36.74 119.42 36.74Z" fill="#000000" fill-opacity="0.9"/>
  <path d="M136.394 26.15C135.154 26.15 134.164 25.7 133.424 24.8C132.684 23.9 132.314 22.72 132.314 21.26C132.314 19.66 132.684 18.15 133.424 16.73C134.164 15.29 135.144 14.14 136.364 13.28C137.604 12.4 138.914 11.96 140.294 11.96C140.734 11.96 141.024 12.05 141.164 12.23C141.324 12.39 141.454 12.69 141.554 13.13C141.974 13.05 142.414 13.01 142.874 13.01C143.854 13.01 144.344 13.36 144.344 14.06C144.344 14.48 144.194 15.48 143.894 17.06C143.434 19.36 143.204 20.96 143.204 21.86C143.204 22.16 143.274 22.4 143.414 22.58C143.574 22.76 143.774 22.85 144.014 22.85C144.394 22.85 144.854 22.61 145.394 22.13C145.934 21.63 146.664 20.83 147.584 19.73C147.824 19.45 148.094 19.31 148.394 19.31C148.654 19.31 148.854 19.43 148.994 19.67C149.154 19.91 149.234 20.24 149.234 20.66C149.234 21.46 149.044 22.08 148.664 22.52C147.844 23.54 146.974 24.4 146.054 25.1C145.134 25.8 144.244 26.15 143.384 26.15C142.724 26.15 142.114 25.93 141.554 25.49C141.014 25.03 140.604 24.41 140.324 23.63C139.284 25.31 137.974 26.15 136.394 26.15ZM137.474 23.12C137.914 23.12 138.334 22.86 138.734 22.34C139.134 21.82 139.424 21.13 139.604 20.27L140.714 14.75C139.874 14.77 139.094 15.09 138.374 15.71C137.674 16.31 137.114 17.11 136.694 18.11C136.274 19.11 136.064 20.17 136.064 21.29C136.064 21.91 136.184 22.37 136.424 22.67C136.684 22.97 137.034 23.12 137.474 23.12Z" fill="#000000" fill-opacity="0.9"/>
  <path d="M150.425 26.15C149.665 26.15 149.125 25.75 148.805 24.95C148.505 24.15 148.355 22.87 148.355 21.11C148.355 18.51 148.725 16.04 149.465 13.7C149.645 13.12 149.935 12.7 150.335 12.44C150.755 12.16 151.335 12.02 152.075 12.02C152.475 12.02 152.755 12.07 152.915 12.17C153.075 12.27 153.155 12.46 153.155 12.74C153.155 13.06 153.005 13.78 152.705 14.9C152.505 15.7 152.345 16.4 152.225 17C152.105 17.58 152.005 18.31 151.925 19.19C152.465 17.63 153.105 16.31 153.845 15.23C154.605 14.15 155.375 13.35 156.155 12.83C156.955 12.29 157.705 12.02 158.405 12.02C159.105 12.02 159.595 12.18 159.875 12.5C160.175 12.82 160.325 13.31 160.325 13.97C160.325 14.61 160.135 15.77 159.755 17.45C159.595 18.17 159.485 18.71 159.425 19.07C160.425 16.61 161.535 14.82 162.755 13.7C163.975 12.58 165.115 12.02 166.175 12.02C167.475 12.02 168.125 12.67 168.125 13.97C168.125 14.75 167.905 16.16 167.465 18.2C167.085 19.94 166.895 21.09 166.895 21.65C166.895 22.45 167.185 22.85 167.765 22.85C168.165 22.85 168.635 22.61 169.175 22.13C169.735 21.63 170.475 20.83 171.395 19.73C171.635 19.45 171.905 19.31 172.205 19.31C172.465 19.31 172.665 19.43 172.805 19.67C172.965 19.91 173.045 20.24 173.045 20.66C173.045 21.46 172.855 22.08 172.475 22.52C171.615 23.58 170.685 24.45 169.685 25.13C168.705 25.81 167.585 26.15 166.325 26.15C165.305 26.15 164.535 25.86 164.015 25.28C163.495 24.68 163.235 23.82 163.235 22.7C163.235 22.14 163.375 21.14 163.655 19.7C163.915 18.44 164.045 17.57 164.045 17.09C164.045 16.77 163.935 16.61 163.715 16.61C163.455 16.61 163.085 16.95 162.605 17.63C162.125 18.29 161.645 19.17 161.165 20.27C160.685 21.37 160.295 22.53 159.995 23.75C159.775 24.71 159.515 25.35 159.215 25.67C158.935 25.99 158.475 26.15 157.835 26.15C157.175 26.15 156.675 25.84 156.335 25.22C156.015 24.58 155.855 23.81 155.855 22.91C155.855 22.15 155.955 21.05 156.155 19.61C156.315 18.33 156.395 17.49 156.395 17.09C156.395 16.77 156.285 16.61 156.065 16.61C155.765 16.61 155.385 16.97 154.925 17.69C154.465 18.41 154.015 19.33 153.575 20.45C153.155 21.57 152.815 22.67 152.555 23.75C152.335 24.69 152.075 25.33 151.775 25.67C151.495 25.99 151.045 26.15 150.425 26.15Z" fill="#000000" fill-opacity="0.9"/>
  <path d="M182.86 20.21C183.12 20.21 183.32 20.33 183.46 20.57C183.62 20.81 183.7 21.14 183.7 21.56C183.7 22.28 183.53 22.9 183.19 23.42C182.63 24.28 181.89 24.95 180.97 25.43C180.07 25.91 178.99 26.15 177.73 26.15C175.81 26.15 174.32 25.58 173.26 24.44C172.2 23.28 171.67 21.72 171.67 19.76C171.67 18.38 171.96 17.1 172.54 15.92C173.12 14.72 173.92 13.77 174.94 13.07C175.98 12.37 177.15 12.02 178.45 12.02C179.61 12.02 180.54 12.37 181.24 13.07C181.94 13.75 182.29 14.68 182.29 15.86C182.29 17.24 181.79 18.43 180.79 19.43C179.81 20.41 178.13 21.19 175.75 21.77C176.23 22.69 177.04 23.15 178.18 23.15C179 23.15 179.67 22.96 180.19 22.58C180.73 22.2 181.35 21.56 182.05 20.66C182.29 20.36 182.56 20.21 182.86 20.21ZM177.94 14.96C177.2 14.96 176.57 15.39 176.05 16.25C175.55 17.11 175.3 18.15 175.3 19.37V19.43C176.48 19.15 177.41 18.73 178.09 18.17C178.77 17.61 179.11 16.96 179.11 16.22C179.11 15.84 179 15.54 178.78 15.32C178.58 15.08 178.3 14.96 177.94 14.96Z" fill="#000000" fill-opacity="0.9"/>
  <path d="M24.8 28.88C25 28.88 25.15 28.98 25.25 29.18C25.37 29.4 25.43 29.68 25.43 30.02C25.43 30.66 25.26 31.29 24.92 31.91C24.24 33.15 23.34 34.1 22.22 34.76C21.12 35.44 19.99 35.78 18.83 35.78C17.65 35.78 16.66 35.59 15.86 35.21C15.06 34.85 14.38 34.3 13.82 33.56C13.26 32.84 12.72 31.88 12.2 30.68C11.66 29.44 11.21 28.51 10.85 27.89C10.51 27.29 10.15 26.85 9.76998 26.57C9.38998 26.29 8.89998 26.09 8.29998 25.97C6.07998 25.53 4.28998 24.43 2.92998 22.67C1.58998 20.91 0.919983 18.64 0.919983 15.86C0.919983 12.82 1.46998 10.14 2.56998 7.82C3.68998 5.5 5.19998 3.71 7.09998 2.45C9.01998 1.19 11.14 0.559998 13.46 0.559998C15.24 0.559998 16.84 0.959998 18.26 1.76C19.7 2.56 20.84 3.74 21.68 5.3C22.52 6.84 22.94 8.69 22.94 10.85C22.94 13.37 22.56 15.64 21.8 17.66C21.04 19.68 19.99 21.36 18.65 22.7C17.31 24.04 15.77 24.99 14.03 25.55C14.53 25.83 14.96 26.24 15.32 26.78C15.7 27.32 16.1 28.1 16.52 29.12C16.98 30.24 17.47 31.04 17.99 31.52C18.53 32 19.19 32.24 19.97 32.24C20.63 32.24 21.27 32.01 21.89 31.55C22.51 31.11 23.21 30.38 23.99 29.36C24.23 29.04 24.5 28.88 24.8 28.88ZM10.7 22.61C12.26 22.61 13.63 22.13 14.81 21.17C16.01 20.21 16.93 18.88 17.57 17.18C18.21 15.46 18.53 13.52 18.53 11.36C18.53 8.98 18.03 7.18 17.03 5.96C16.03 4.72 14.74 4.1 13.16 4.1C11.64 4.1 10.28 4.59 9.07998 5.57C7.89998 6.53 6.97998 7.86 6.31998 9.56C5.65998 11.26 5.32998 13.19 5.32998 15.35C5.32998 17.73 5.82998 19.54 6.82998 20.78C7.82998 22 9.11998 22.61 10.7 22.61Z" fill="#000000" fill-opacity="0.9"/>
  <path d="M29.1992 26.15C28.2992 26.15 27.5592 25.74 26.9792 24.92C26.4192 24.08 26.1392 23.04 26.1392 21.8C26.1392 20.3 26.2392 18.93 26.4392 17.69C26.6392 16.43 26.9692 15.1 27.4292 13.7C27.6292 13.1 27.9092 12.67 28.2692 12.41C28.6292 12.15 29.1992 12.02 29.9792 12.02C30.4192 12.02 30.7192 12.09 30.8792 12.23C31.0592 12.37 31.1492 12.58 31.1492 12.86C31.1492 13.02 31.0392 13.56 30.8192 14.48C30.6192 15.22 30.4592 15.89 30.3392 16.49C29.9392 18.59 29.7392 19.99 29.7392 20.69C29.7392 21.11 29.7892 21.41 29.8892 21.59C29.9892 21.75 30.1492 21.83 30.3692 21.83C30.6692 21.83 31.0392 21.53 31.4792 20.93C31.9392 20.33 32.4192 19.42 32.9192 18.2C33.4392 16.98 33.9392 15.48 34.4192 13.7C34.5792 13.1 34.8192 12.67 35.1392 12.41C35.4792 12.15 35.9792 12.02 36.6392 12.02C37.0992 12.02 37.4192 12.08 37.5992 12.2C37.7792 12.3 37.8692 12.5 37.8692 12.8C37.8692 13.3 37.6192 14.67 37.1192 16.91C36.5592 19.47 36.2792 21.05 36.2792 21.65C36.2792 22.03 36.3592 22.33 36.5192 22.55C36.6792 22.75 36.8892 22.85 37.1492 22.85C37.5492 22.85 38.0192 22.61 38.5592 22.13C39.1192 21.63 39.8592 20.83 40.7792 19.73C41.0192 19.45 41.2892 19.31 41.5892 19.31C41.8492 19.31 42.0492 19.43 42.1892 19.67C42.3492 19.91 42.4292 20.24 42.4292 20.66C42.4292 21.46 42.2392 22.08 41.8592 22.52C40.9992 23.58 40.0692 24.45 39.0692 25.13C38.0892 25.81 36.9692 26.15 35.7092 26.15C34.7492 26.15 34.0392 25.78 33.5792 25.04C33.1392 24.3 32.9192 23.26 32.9192 21.92C32.5792 23.28 32.0692 24.33 31.3892 25.07C30.7092 25.79 29.9792 26.15 29.1992 26.15Z" fill="#000000" fill-opacity="0.9"/>
  <path d="M54.8766 19.31C55.1366 19.31 55.3366 19.43 55.4766 19.67C55.6366 19.91 55.7166 20.24 55.7166 20.66C55.7166 21.46 55.5266 22.08 55.1466 22.52C54.4066 23.42 53.3566 24.25 51.9966 25.01C50.6566 25.77 49.2166 26.15 47.6766 26.15C45.5766 26.15 43.9466 25.58 42.7866 24.44C41.6266 23.3 41.0466 21.74 41.0466 19.76C41.0466 18.38 41.3366 17.1 41.9166 15.92C42.4966 14.72 43.2966 13.77 44.3166 13.07C45.3566 12.37 46.5266 12.02 47.8266 12.02C48.9866 12.02 49.9166 12.37 50.6166 13.07C51.3166 13.75 51.6666 14.68 51.6666 15.86C51.6666 17.24 51.1666 18.43 50.1666 19.43C49.1866 20.41 47.5166 21.19 45.1566 21.77C45.6566 22.69 46.6066 23.15 48.0066 23.15C48.9066 23.15 49.9266 22.84 51.0666 22.22C52.2266 21.58 53.2266 20.75 54.0666 19.73C54.3066 19.45 54.5766 19.31 54.8766 19.31ZM47.3166 14.96C46.5766 14.96 45.9466 15.39 45.4266 16.25C44.9266 17.11 44.6766 18.15 44.6766 19.37V19.43C45.8566 19.15 46.7866 18.73 47.4666 18.17C48.1466 17.61 48.4866 16.96 48.4866 16.22C48.4866 15.84 48.3766 15.54 48.1566 15.32C47.9566 15.08 47.6766 14.96 47.3166 14.96Z" fill="#000000" fill-opacity="0.9"/>
  <path d="M68.154 19.31C68.414 19.31 68.614 19.43 68.754 19.67C68.914 19.91 68.994 20.24 68.994 20.66C68.994 21.46 68.804 22.08 68.424 22.52C67.684 23.42 66.634 24.25 65.274 25.01C63.934 25.77 62.494 26.15 60.954 26.15C58.854 26.15 57.224 25.58 56.064 24.44C54.904 23.3 54.324 21.74 54.324 19.76C54.324 18.38 54.614 17.1 55.194 15.92C55.774 14.72 56.574 13.77 57.594 13.07C58.634 12.37 59.804 12.02 61.104 12.02C62.264 12.02 63.194 12.37 63.894 13.07C64.594 13.75 64.944 14.68 64.944 15.86C64.944 17.24 64.444 18.43 63.444 19.43C62.464 20.41 60.794 21.19 58.434 21.77C58.934 22.69 59.884 23.15 61.284 23.15C62.184 23.15 63.204 22.84 64.344 22.22C65.504 21.58 66.504 20.75 67.344 19.73C67.584 19.45 67.854 19.31 68.154 19.31ZM60.594 14.96C59.854 14.96 59.224 15.39 58.704 16.25C58.204 17.11 57.954 18.15 57.954 19.37V19.43C59.134 19.15 60.064 18.73 60.744 18.17C61.424 17.61 61.764 16.96 61.764 16.22C61.764 15.84 61.654 15.54 61.434 15.32C61.234 15.08 60.954 14.96 60.594 14.96Z" fill="#000000" fill-opacity="0.9"/>
  <path d="M70.1813 26.15C69.4213 26.15 68.8813 25.75 68.5613 24.95C68.2613 24.15 68.1113 22.87 68.1113 21.11C68.1113 18.51 68.4813 16.04 69.2213 13.7C69.4013 13.12 69.6913 12.7 70.0913 12.44C70.5113 12.16 71.0913 12.02 71.8313 12.02C72.2313 12.02 72.5113 12.07 72.6713 12.17C72.8313 12.27 72.9113 12.46 72.9113 12.74C72.9113 13.06 72.7613 13.78 72.4613 14.9C72.2613 15.7 72.1013 16.4 71.9813 17C71.8613 17.6 71.7613 18.34 71.6813 19.22C72.3413 17.5 73.0813 16.1 73.9013 15.02C74.7213 13.94 75.5213 13.17 76.3013 12.71C77.1013 12.25 77.8313 12.02 78.4913 12.02C79.7913 12.02 80.4413 12.67 80.4413 13.97C80.4413 14.75 80.2213 16.16 79.7813 18.2C79.4013 19.94 79.2113 21.09 79.2113 21.65C79.2113 22.45 79.5013 22.85 80.0813 22.85C80.4813 22.85 80.9513 22.61 81.4913 22.13C82.0513 21.63 82.7913 20.83 83.7113 19.73C83.9513 19.45 84.2213 19.31 84.5213 19.31C84.7813 19.31 84.9813 19.43 85.1213 19.67C85.2813 19.91 85.3613 20.24 85.3613 20.66C85.3613 21.46 85.1713 22.08 84.7913 22.52C83.9313 23.58 83.0013 24.45 82.0013 25.13C81.0213 25.81 79.9013 26.15 78.6413 26.15C77.6213 26.15 76.8513 25.86 76.3313 25.28C75.8113 24.68 75.5513 23.82 75.5513 22.7C75.5513 22.14 75.6913 21.14 75.9713 19.7C76.2313 18.44 76.3613 17.57 76.3613 17.09C76.3613 16.77 76.2513 16.61 76.0313 16.61C75.7713 16.61 75.4013 16.95 74.9213 17.63C74.4613 18.29 73.9813 19.17 73.4813 20.27C73.0013 21.37 72.6113 22.53 72.3113 23.75C72.0913 24.69 71.8313 25.33 71.5313 25.67C71.2513 25.99 70.8013 26.15 70.1813 26.15Z" fill="#000000" fill-opacity="0.9"/>
  <path d="M90.0141 26.81C88.9741 26.81 88.1741 26.57 87.6141 26.09C87.0741 25.61 86.8041 25.07 86.8041 24.47C86.8041 23.95 86.9941 23.5 87.3741 23.12C87.7541 22.74 88.3141 22.55 89.0541 22.55C89.3141 22.55 89.6141 22.58 89.9541 22.64C90.3141 22.68 90.5841 22.71 90.7641 22.73C90.7441 22.21 90.6241 21.72 90.4041 21.26C90.2041 20.8 89.9441 20.36 89.6241 19.94C89.3041 19.5 89.0041 19.12 88.7241 18.8C88.1041 19.98 87.4841 20.96 86.8641 21.74C86.2641 22.52 85.6041 23.26 84.8841 23.96C84.5241 24.32 84.1441 24.5 83.7441 24.5C83.4241 24.5 83.1641 24.39 82.9641 24.17C82.7641 23.93 82.6641 23.64 82.6641 23.3C82.6641 22.9 82.8041 22.53 83.0841 22.19L83.4741 21.71C84.5741 20.35 85.4041 19.23 85.9641 18.35C86.3241 17.77 86.6841 17.08 87.0441 16.28C87.4241 15.48 87.9141 14.39 88.5141 13.01C88.8941 12.13 89.6841 11.69 90.8841 11.69C91.4441 11.69 91.8341 11.74 92.0541 11.84C92.2741 11.94 92.3841 12.1 92.3841 12.32C92.3841 12.44 92.3441 12.63 92.2641 12.89C92.1841 13.15 92.0741 13.41 91.9341 13.67C91.5741 14.39 91.3941 15 91.3941 15.5C91.3941 15.8 91.4941 16.13 91.6941 16.49C91.9141 16.85 92.2441 17.3 92.6841 17.84C93.3241 18.68 93.8041 19.4 94.1241 20C94.4641 20.58 94.6341 21.22 94.6341 21.92C94.6341 22.76 94.4341 23.56 94.0341 24.32C93.6541 25.06 93.1141 25.66 92.4141 26.12C91.7141 26.58 90.9141 26.81 90.0141 26.81Z" fill="#000000" fill-opacity="0.9"/>
  <path d="M132.5 19.37C132.76 19.37 132.96 19.5 133.1 19.76C133.26 20 133.34 20.31 133.34 20.69C133.34 21.15 133.27 21.51 133.13 21.77C132.99 22.03 132.77 22.26 132.47 22.46C131.29 23.24 129.41 24.52 126.83 26.3C126.05 30.44 125.04 33.7 123.8 36.08C122.56 38.46 120.99 39.65 119.09 39.65C118.07 39.65 117.24 39.33 116.6 38.69C115.96 38.07 115.64 37.25 115.64 36.23C115.64 35.29 115.85 34.34 116.27 33.38C116.69 32.42 117.47 31.31 118.61 30.05C119.77 28.79 121.4 27.35 123.5 25.73L123.59 25.16C122.01 25.82 120.46 26.15 118.94 26.15C116.7 26.15 114.73 25.72 113.03 24.86C111.33 23.98 110.01 22.74 109.07 21.14C108.13 19.54 107.66 17.68 107.66 15.56C107.66 12.6 108.22 9.99 109.34 7.73C110.46 5.45 112 3.69 113.96 2.45C115.94 1.19 118.15 0.559998 120.59 0.559998C122.93 0.559998 124.68 1.11 125.84 2.21C127.02 3.29 127.61 4.73 127.61 6.53C127.61 7.71 127.39 8.66 126.95 9.38C126.53 10.08 125.92 10.43 125.12 10.43C124.58 10.43 124.14 10.3 123.8 10.04C123.48 9.78 123.32 9.42 123.32 8.96C123.32 8.76 123.36 8.42 123.44 7.94C123.56 7.38 123.62 6.94 123.62 6.62C123.62 5.78 123.36 5.13 122.84 4.67C122.34 4.21 121.49 3.98 120.29 3.98C118.83 3.98 117.47 4.4 116.21 5.24C114.97 6.08 113.97 7.34 113.21 9.02C112.45 10.68 112.07 12.68 112.07 15.02C112.07 17.42 112.72 19.28 114.02 20.6C115.34 21.9 117.24 22.55 119.72 22.55C121.1 22.55 122.54 22.24 124.04 21.62L124.46 17.96H121.4C120.84 17.96 120.41 17.83 120.11 17.57C119.81 17.29 119.66 16.84 119.66 16.22C119.66 15.66 119.81 15.22 120.11 14.9C120.41 14.58 120.81 14.42 121.31 14.42H126.92C127.36 14.42 127.72 14.57 128 14.87C128.3 15.15 128.42 15.56 128.36 16.1C128.3 16.74 128.1 18.19 127.76 20.45L127.43 22.73C129.03 21.53 130.49 20.49 131.81 19.61C132.07 19.45 132.3 19.37 132.5 19.37ZM119.42 36.74C119.94 36.74 120.51 36.15 121.13 34.97C121.75 33.79 122.33 31.89 122.87 29.27C121.35 30.57 120.25 31.74 119.57 32.78C118.91 33.84 118.58 34.77 118.58 35.57C118.58 36.35 118.86 36.74 119.42 36.74Z" fill="#000000" fill-opacity="0.9"/>
  <path d="M136.394 26.15C135.154 26.15 134.164 25.7 133.424 24.8C132.684 23.9 132.314 22.72 132.314 21.26C132.314 19.66 132.684 18.15 133.424 16.73C134.164 15.29 135.144 14.14 136.364 13.28C137.604 12.4 138.914 11.96 140.294 11.96C140.734 11.96 141.024 12.05 141.164 12.23C141.324 12.39 141.454 12.69 141.554 13.13C141.974 13.05 142.414 13.01 142.874 13.01C143.854 13.01 144.344 13.36 144.344 14.06C144.344 14.48 144.194 15.48 143.894 17.06C143.434 19.36 143.204 20.96 143.204 21.86C143.204 22.16 143.274 22.4 143.414 22.58C143.574 22.76 143.774 22.85 144.014 22.85C144.394 22.85 144.854 22.61 145.394 22.13C145.934 21.63 146.664 20.83 147.584 19.73C147.824 19.45 148.094 19.31 148.394 19.31C148.654 19.31 148.854 19.43 148.994 19.67C149.154 19.91 149.234 20.24 149.234 20.66C149.234 21.46 149.044 22.08 148.664 22.52C147.844 23.54 146.974 24.4 146.054 25.1C145.134 25.8 144.244 26.15 143.384 26.15C142.724 26.15 142.114 25.93 141.554 25.49C141.014 25.03 140.604 24.41 140.324 23.63C139.284 25.31 137.974 26.15 136.394 26.15ZM137.474 23.12C137.914 23.12 138.334 22.86 138.734 22.34C139.134 21.82 139.424 21.13 139.604 20.27L140.714 14.75C139.874 14.77 139.094 15.09 138.374 15.71C137.674 16.31 137.114 17.11 136.694 18.11C136.274 19.11 136.064 20.17 136.064 21.29C136.064 21.91 136.184 22.37 136.424 22.67C136.684 22.97 137.034 23.12 137.474 23.12Z" fill="#000000" fill-opacity="0.9"/>
  <path d="M150.425 26.15C149.665 26.15 149.125 25.75 148.805 24.95C148.505 24.15 148.355 22.87 148.355 21.11C148.355 18.51 148.725 16.04 149.465 13.7C149.645 13.12 149.935 12.7 150.335 12.44C150.755 12.16 151.335 12.02 152.075 12.02C152.475 12.02 152.755 12.07 152.915 12.17C153.075 12.27 153.155 12.46 153.155 12.74C153.155 13.06 153.005 13.78 152.705 14.9C152.505 15.7 152.345 16.4 152.225 17C152.105 17.58 152.005 18.31 151.925 19.19C152.465 17.63 153.105 16.31 153.845 15.23C154.605 14.15 155.375 13.35 156.155 12.83C156.955 12.29 157.705 12.02 158.405 12.02C159.105 12.02 159.595 12.18 159.875 12.5C160.175 12.82 160.325 13.31 160.325 13.97C160.325 14.61 160.135 15.77 159.755 17.45C159.595 18.17 159.485 18.71 159.425 19.07C160.425 16.61 161.535 14.82 162.755 13.7C163.975 12.58 165.115 12.02 166.175 12.02C167.475 12.02 168.125 12.67 168.125 13.97C168.125 14.75 167.905 16.16 167.465 18.2C167.085 19.94 166.895 21.09 166.895 21.65C166.895 22.45 167.185 22.85 167.765 22.85C168.165 22.85 168.635 22.61 169.175 22.13C169.735 21.63 170.475 20.83 171.395 19.73C171.635 19.45 171.905 19.31 172.205 19.31C172.465 19.31 172.665 19.43 172.805 19.67C172.965 19.91 173.045 20.24 173.045 20.66C173.045 21.46 172.855 22.08 172.475 22.52C171.615 23.58 170.685 24.45 169.685 25.13C168.705 25.81 167.585 26.15 166.325 26.15C165.305 26.15 164.535 25.86 164.015 25.28C163.495 24.68 163.235 23.82 163.235 22.7C163.235 22.14 163.375 21.14 163.655 19.7C163.915 18.44 164.045 17.57 164.045 17.09C164.045 16.77 163.935 16.61 163.715 16.61C163.455 16.61 163.085 16.95 162.605 17.63C162.125 18.29 161.645 19.17 161.165 20.27C160.685 21.37 160.295 22.53 159.995 23.75C159.775 24.71 159.515 25.35 159.215 25.67C158.935 25.99 158.475 26.15 157.835 26.15C157.175 26.15 156.675 25.84 156.335 25.22C156.015 24.58 155.855 23.81 155.855 22.91C155.855 22.15 155.955 21.05 156.155 19.61C156.315 18.33 156.395 17.49 156.395 17.09C156.395 16.77 156.285 16.61 156.065 16.61C155.765 16.61 155.385 16.97 154.925 17.69C154.465 18.41 154.015 19.33 153.575 20.45C153.155 21.57 152.815 22.67 152.555 23.75C152.335 24.69 152.075 25.33 151.775 25.67C151.495 25.99 151.045 26.15 150.425 26.15Z" fill="#000000" fill-opacity="0.9"/>
  <path d="M182.86 20.21C183.12 20.21 183.32 20.33 183.46 20.57C183.62 20.81 183.7 21.14 183.7 21.56C183.7 22.28 183.53 22.9 183.19 23.42C182.63 24.28 181.89 24.95 180.97 25.43C180.07 25.91 178.99 26.15 177.73 26.15C175.81 26.15 174.32 25.58 173.26 24.44C172.2 23.28 171.67 21.72 171.67 19.76C171.67 18.38 171.96 17.1 172.54 15.92C173.12 14.72 173.92 13.77 174.94 13.07C175.98 12.37 177.15 12.02 178.45 12.02C179.61 12.02 180.54 12.37 181.24 13.07C181.94 13.75 182.29 14.68 182.29 15.86C182.29 17.24 181.79 18.43 180.79 19.43C179.81 20.41 178.13 21.19 175.75 21.77C176.23 22.69 177.04 23.15 178.18 23.15C179 23.15 179.67 22.96 180.19 22.58C180.73 22.2 181.35 21.56 182.05 20.66C182.29 20.36 182.56 20.21 182.86 20.21ZM177.94 14.96C177.2 14.96 176.57 15.39 176.05 16.25C175.55 17.11 175.3 18.15 175.3 19.37V19.43C176.48 19.15 177.41 18.73 178.09 18.17C178.77 17.61 179.11 16.96 179.11 16.22C179.11 15.84 179 15.54 178.78 15.32C178.58 15.08 178.3 14.96 177.94 14.96Z" fill="#000000" fill-opacity="0.9"/>
</svg>
