<svg width="512" height="512" viewBox="0 0 512 512" fill="none" xmlns="http://www.w3.org/2000/svg">
<path d="M95.4492 317.316C88.0165 269.003 80.5839 220.692 73.1512 172.379C71.5029 161.669 83.6886 154.365 92.3566 160.866C115.514 178.234 138.669 195.601 161.826 212.968C169.451 218.687 180.313 216.826 185.599 208.896L243.434 122.143C249.546 112.975 263.016 112.975 269.128 122.143L326.963 208.896C332.249 216.826 343.111 218.685 350.736 212.968C373.893 195.601 397.048 178.234 420.205 160.866C428.873 154.365 441.059 161.669 439.412 172.379C431.979 220.692 424.547 269.003 417.114 317.316H95.4492Z" fill="black"/>
<path d="M400.342 397.732H112.219C102.958 397.732 95.4492 390.223 95.4492 380.961V344.122H417.114V380.961C417.113 390.223 409.604 397.732 400.342 397.732Z" fill="black"/>
</svg>
